<svg width="800" height="800" viewBox="0 0 800 800" fill="none" xmlns="http://www.w3.org/2000/svg">
<rect width="800" height="800" fill="#11111B"/>
<path d="M201.6 519H172.55V296.75L265.65 295.35C281.517 295.117 293.417 298.617 301.35 305.85C309.283 313.083 313.25 324.167 313.25 339.1V389.15C313.25 398.483 311.5 406.533 308 413.3C304.5 419.833 299.25 424.85 292.25 428.35C285.25 431.617 276.383 433.25 265.65 433.25H194.6L201.25 427.65L201.6 519ZM201.25 314.6V414L196.35 408.4H279.3C282.333 408.4 283.85 406.883 283.85 403.85V324.75C283.85 321.717 282.333 320.2 279.3 320.2H196.35L201.25 314.6ZM349.984 431.5V408.75C349.984 402.217 351.617 397.433 354.884 394.4C358.384 391.367 363.867 389.85 371.334 389.85H376.584C384.05 389.85 389.534 391.367 393.034 394.4C396.534 397.433 398.284 402.217 398.284 408.75V431.5C398.284 438.033 396.534 442.933 393.034 446.2C389.534 449.233 384.05 450.75 376.584 450.75H371.334C363.867 450.75 358.384 449.233 354.884 446.2C351.617 442.933 349.984 438.033 349.984 431.5ZM475.623 519H447.973V347.5H475.623V519ZM475.623 313.2H447.973V286.25H475.623V313.2ZM605.467 368.15H545.967C543.634 368.15 542.467 369.317 542.467 371.65V494.85C542.467 497.183 543.634 498.35 545.967 498.35H605.467C607.567 498.35 608.617 497.183 608.617 494.85V371.65C608.617 369.317 607.567 368.15 605.467 368.15ZM514.817 482.6V383.9C514.817 369.433 518.201 359.4 524.967 353.8C531.967 347.967 543.051 345.05 558.217 345.05H593.217C608.617 345.05 619.701 347.967 626.467 353.8C633.234 359.4 636.617 369.433 636.617 383.9V482.6C636.617 496.833 633.234 506.867 626.467 512.7C619.701 518.533 608.617 521.45 593.217 521.45H558.217C543.051 521.45 531.967 518.533 524.967 512.7C518.201 506.867 514.817 496.833 514.817 482.6Z" fill="#B4BEFE"/>
</svg>
